<svg width="17" height="17" viewBox="0 0 17 17" fill="none" xmlns="http://www.w3.org/2000/svg">
<path fill-rule="evenodd" clip-rule="evenodd" d="M8.08333 16.1667C4.27285 16.1667 2.36761 16.1667 1.1834 14.9825C0 13.7999 0 11.8938 0 8.08333C0 4.27285 0 2.36761 1.1834 1.1834C2.36842 0 4.27285 0 8.08333 0C11.8938 0 13.7991 0 14.9825 1.1834C16.1667 2.36842 16.1667 4.27285 16.1667 8.08333C16.1667 11.8938 16.1667 13.7991 14.9825 14.9825C13.7999 16.1667 11.8938 16.1667 8.08333 16.1667ZM5.63408 5.63408C5.74776 5.52055 5.90184 5.45678 6.0625 5.45678C6.22316 5.45678 6.37724 5.52055 6.49092 5.63408L8.08333 7.2265L9.67575 5.63408C9.79068 5.527 9.94268 5.4687 10.0997 5.47147C10.2568 5.47424 10.4067 5.53786 10.5177 5.64894C10.6288 5.76002 10.6924 5.90987 10.6952 6.06693C10.698 6.22399 10.6397 6.37599 10.5326 6.49092L8.94017 8.08333L10.5326 9.67575C10.5921 9.73125 10.6399 9.79818 10.6731 9.87255C10.7062 9.94691 10.724 10.0272 10.7254 10.1086C10.7269 10.19 10.7119 10.2709 10.6814 10.3463C10.6509 10.4218 10.6055 10.4904 10.548 10.548C10.4904 10.6055 10.4218 10.6509 10.3463 10.6814C10.2709 10.7119 10.19 10.7269 10.1086 10.7254C10.0272 10.724 9.94691 10.7062 9.87255 10.6731C9.79818 10.6399 9.73125 10.5921 9.67575 10.5326L8.08333 8.94017L6.49092 10.5326C6.43542 10.5921 6.36848 10.6399 6.29412 10.6731C6.21975 10.7062 6.13947 10.724 6.05807 10.7254C5.97667 10.7269 5.89581 10.7119 5.82032 10.6814C5.74484 10.6509 5.67626 10.6055 5.61869 10.548C5.56113 10.4904 5.51574 10.4218 5.48525 10.3463C5.45476 10.2709 5.43979 10.19 5.44122 10.1086C5.44266 10.0272 5.46047 9.94691 5.49361 9.87255C5.52675 9.79818 5.57452 9.73125 5.63408 9.67575L7.2265 8.08333L5.63408 6.49092C5.52055 6.37724 5.45678 6.22316 5.45678 6.0625C5.45678 5.90184 5.52055 5.74776 5.63408 5.63408Z" fill="#A644D3"/>
</svg>
